<svg width="57" height="53" viewBox="0 0 57 53" fill="none" xmlns="http://www.w3.org/2000/svg">
<path d="M23.3334 24.9997C20.2167 24.9997 17.5487 23.792 15.3292 21.3768C13.1098 18.9615 12.0001 16.058 12.0001 12.6663C12.0001 9.27467 13.1098 6.3712 15.3292 3.95592C17.5487 1.54065 20.2167 0.333008 23.3334 0.333008C26.4501 0.333008 29.1181 1.54065 31.3376 3.95592C33.557 6.3712 34.6667 9.27467 34.6667 12.6663C34.6667 16.058 33.557 18.9615 31.3376 21.3768C29.1181 23.792 26.4501 24.9997 23.3334 24.9997ZM0.666748 49.6663V41.033C0.666748 39.3372 1.06814 37.7441 1.87091 36.2538C2.67369 34.7636 3.78341 33.633 5.20008 32.8622C7.60842 31.5261 10.3237 30.3955 13.3459 29.4705C16.3681 28.5455 19.6973 28.083 23.3334 28.083H24.3251C24.6084 28.083 24.8917 28.1344 25.1751 28.2372C24.7973 29.1622 24.4781 30.1262 24.2174 31.1293C23.9586 32.1304 23.7584 33.1705 23.6168 34.2497H23.3334C19.9806 34.2497 16.9697 34.7122 14.3007 35.6372C11.6336 36.5622 9.45008 37.4872 7.75008 38.4122C7.32508 38.6691 6.98319 39.0288 6.72442 39.4913C6.46375 39.9538 6.33342 40.4677 6.33342 41.033V43.4997H24.1834C24.4667 44.5788 24.8445 45.6457 25.3167 46.7002C25.789 47.7526 26.3084 48.7413 26.8751 49.6663H0.666748ZM40.3334 52.7497L39.4834 48.1247C38.9167 47.8677 38.385 47.5985 37.8883 47.3168C37.3934 47.0332 36.8862 46.6858 36.3668 46.2747L32.2584 47.6622L29.4251 42.4205L32.6834 39.3372C32.589 38.6177 32.5417 37.9497 32.5417 37.333C32.5417 36.7163 32.589 36.0483 32.6834 35.3288L29.4251 32.2455L32.2584 27.0038L36.3668 28.3913C36.8862 27.9802 37.3934 27.6328 37.8883 27.3492C38.385 27.0676 38.9167 26.7983 39.4834 26.5413L40.3334 21.9163H46.0001L46.8501 26.5413C47.4167 26.7983 47.9485 27.0809 48.4453 27.3893C48.9401 27.6976 49.4473 28.083 49.9668 28.5455L54.0751 27.0038L56.9084 32.3997L53.6501 35.483C53.7445 36.0997 53.7918 36.742 53.7918 37.4101C53.7918 38.0781 53.7445 38.7205 53.6501 39.3372L56.9084 42.4205L54.0751 47.6622L49.9668 46.2747C49.4473 46.6858 48.9401 47.0332 48.4453 47.3168C47.9485 47.5985 47.4167 47.8677 46.8501 48.1247L46.0001 52.7497H40.3334ZM43.1668 43.4997C44.7251 43.4997 46.0596 42.8964 47.1702 41.6898C48.279 40.4811 48.8334 39.0288 48.8334 37.333C48.8334 35.6372 48.279 34.1849 47.1702 32.9763C46.0596 31.7696 44.7251 31.1663 43.1668 31.1663C41.6084 31.1663 40.2749 31.7696 39.1661 32.9763C38.0554 34.1849 37.5001 35.6372 37.5001 37.333C37.5001 39.0288 38.0554 40.4811 39.1661 41.6898C40.2749 42.8964 41.6084 43.4997 43.1668 43.4997ZM23.3334 18.833C24.8918 18.833 26.2262 18.2287 27.3369 17.02C28.4457 15.8134 29.0001 14.3622 29.0001 12.6663C29.0001 10.9705 28.4457 9.51929 27.3369 8.31267C26.2262 7.10401 24.8918 6.49967 23.3334 6.49967C21.7751 6.49967 20.4415 7.10401 19.3328 8.31267C18.2221 9.51929 17.6667 10.9705 17.6667 12.6663C17.6667 14.3622 18.2221 15.8134 19.3328 17.02C20.4415 18.2287 21.7751 18.833 23.3334 18.833Z" fill="white"/>
</svg>
