<svg width="40" height="40" viewBox="0 0 40 40" fill="none" xmlns="http://www.w3.org/2000/svg">
<path d="M38.64 15.1L34.86 13.84L36.64 10.28C36.8204 9.90738 36.8808 9.48794 36.8127 9.07955C36.7447 8.67117 36.5515 8.29397 36.26 8.00001L32 3.74001C31.7045 3.44418 31.3237 3.24842 30.9111 3.18026C30.4985 3.1121 30.075 3.17496 29.7 3.36001L26.14 5.14001L24.88 1.36001C24.7469 0.965991 24.4943 0.623258 24.1574 0.379503C23.8204 0.135747 23.4159 0.00309535 23 6.66707e-06H17C16.5807 -0.00107566 16.1717 0.129645 15.8307 0.373691C15.4898 0.617737 15.2342 0.962765 15.1 1.36001L13.84 5.14001L10.28 3.36001C9.90738 3.17957 9.48794 3.11921 9.07955 3.18728C8.67117 3.25534 8.29397 3.44847 8.00001 3.74001L3.74001 8.00001C3.44418 8.29554 3.24842 8.67636 3.18026 9.08892C3.1121 9.50148 3.17496 9.92503 3.36001 10.3L5.14001 13.86L1.36001 15.12C0.965991 15.2531 0.623258 15.5057 0.379503 15.8426C0.135747 16.1796 0.00309535 16.5841 6.66707e-06 17V23C-0.00107566 23.4193 0.129645 23.8283 0.373691 24.1693C0.617737 24.5102 0.962765 24.7658 1.36001 24.9L5.14001 26.16L3.36001 29.72C3.17957 30.0926 3.11921 30.5121 3.18728 30.9205C3.25534 31.3288 3.44847 31.706 3.74001 32L8.00001 36.26C8.29554 36.5558 8.67636 36.7516 9.08892 36.8198C9.50148 36.8879 9.92503 36.8251 10.3 36.64L13.86 34.86L15.12 38.64C15.2542 39.0373 15.5098 39.3823 15.8507 39.6263C16.1917 39.8704 16.6007 40.0011 17.02 40H23.02C23.4393 40.0011 23.8483 39.8704 24.1893 39.6263C24.5302 39.3823 24.7858 39.0373 24.92 38.64L26.18 34.86L29.74 36.64C30.1103 36.8159 30.5256 36.8738 30.9298 36.8058C31.3341 36.7378 31.7076 36.5473 32 36.26L36.26 32C36.5558 31.7045 36.7516 31.3237 36.8198 30.9111C36.8879 30.4985 36.8251 30.075 36.64 29.7L34.86 26.14L38.64 24.88C39.034 24.7469 39.3768 24.4943 39.6205 24.1574C39.8643 23.8204 39.9969 23.4159 40 23V17C40.0011 16.5807 39.8704 16.1717 39.6263 15.8307C39.3823 15.4898 39.0373 15.2342 38.64 15.1ZM36 21.56L33.6 22.36C33.0481 22.539 32.5418 22.836 32.1161 23.2302C31.6905 23.6245 31.3556 24.1066 31.1349 24.6432C30.9142 25.1797 30.8129 25.7579 30.8379 26.3376C30.863 26.9172 31.0138 27.4845 31.28 28L32.42 30.28L30.22 32.48L28 31.28C27.4871 31.0245 26.9253 30.8821 26.3526 30.8626C25.7799 30.8431 25.2097 30.9468 24.6806 31.1668C24.1515 31.3868 23.6759 31.7179 23.2858 32.1377C22.8958 32.5575 22.6005 33.0562 22.42 33.6L21.62 36H18.44L17.64 33.6C17.461 33.0481 17.1641 32.5418 16.7698 32.1161C16.3756 31.6905 15.8934 31.3556 15.3568 31.1349C14.8203 30.9142 14.2421 30.8129 13.6625 30.8379C13.0828 30.863 12.5155 31.0138 12 31.28L9.72001 32.42L7.52001 30.22L8.72001 28C8.98619 27.4845 9.13705 26.9172 9.1621 26.3376C9.18715 25.7579 9.0858 25.1797 8.86508 24.6432C8.64437 24.1066 8.30956 23.6245 7.8839 23.2302C7.45823 22.836 6.95189 22.539 6.40001 22.36L4.00001 21.56V18.44L6.40001 17.64C6.95189 17.461 7.45823 17.1641 7.8839 16.7698C8.30956 16.3756 8.64437 15.8934 8.86508 15.3568C9.0858 14.8203 9.18715 14.2421 9.1621 13.6625C9.13705 13.0828 8.98619 12.5155 8.72001 12L7.58001 9.78001L9.78001 7.58001L12 8.72001C12.5155 8.98619 13.0828 9.13705 13.6625 9.1621C14.2421 9.18715 14.8203 9.0858 15.3568 8.86508C15.8934 8.64437 16.3756 8.30956 16.7698 7.8839C17.1641 7.45823 17.461 6.95189 17.64 6.40001L18.44 4.00001H21.56L22.36 6.40001C22.539 6.95189 22.836 7.45823 23.2302 7.8839C23.6245 8.30956 24.1066 8.64437 24.6432 8.86508C25.1797 9.0858 25.7579 9.18715 26.3376 9.1621C26.9172 9.13705 27.4845 8.98619 28 8.72001L30.28 7.58001L32.48 9.78001L31.28 12C31.0245 12.5129 30.8821 13.0747 30.8626 13.6474C30.8431 14.2201 30.9468 14.7903 31.1668 15.3194C31.3868 15.8485 31.7179 16.3241 32.1377 16.7142C32.5575 17.1042 33.0562 17.3995 33.6 17.58L36 18.38V21.56ZM20 12C18.4178 12 16.871 12.4692 15.5554 13.3483C14.2399 14.2273 13.2145 15.4767 12.609 16.9385C12.0035 18.4003 11.845 20.0089 12.1537 21.5607C12.4624 23.1126 13.2243 24.538 14.3432 25.6569C15.462 26.7757 16.8874 27.5376 18.4393 27.8463C19.9911 28.155 21.5997 27.9965 23.0615 27.391C24.5233 26.7855 25.7727 25.7602 26.6518 24.4446C27.5308 23.129 28 21.5823 28 20C28 17.8783 27.1572 15.8434 25.6569 14.3432C24.1566 12.8429 22.1217 12 20 12ZM20 24C19.2089 24 18.4355 23.7654 17.7777 23.3259C17.1199 22.8864 16.6072 22.2616 16.3045 21.5307C16.0017 20.7998 15.9225 19.9956 16.0769 19.2196C16.2312 18.4437 16.6122 17.731 17.1716 17.1716C17.731 16.6122 18.4437 16.2312 19.2196 16.0769C19.9956 15.9225 20.7998 16.0017 21.5307 16.3045C22.2616 16.6072 22.8864 17.1199 23.3259 17.7777C23.7654 18.4355 24 19.2089 24 20C24 21.0609 23.5786 22.0783 22.8284 22.8284C22.0783 23.5786 21.0609 24 20 24Z" fill="#FAFAFA"/>
</svg>
